PathFileType	4	(X/Y/Z)	F:\MotionCapture\20160217\3\Generated_files\2_Test04-Dynamic.trc
DataRate	CameraRate	NumFrames	NumMarkers	Units	OrigDataRate	OrigDataStartFrame	OrigNumFrames
120.00	120.00	       9	39	mm	120.00	531	       849
Frame#	Time	Top.Head			Front.Head			Rear.Head			R.Shoulder			R.Offset			R.Elbow			R.Wrist			L.Shoulder			L.Elbow			L.Wrist			R.ASIS			L.ASIS			V.Sacral			R.Thigh			R.Knee			R.Shank			R.Ankle			R.Heel			R.Toe			L.Thigh			L.Knee			L.Shank			L.Ankle			L.Heel			L.Toe			R1			R2			R3			R4			R5			R6			R7			L1			L2			L3			L4			L5			L6			L7			V_Mid_ASIS			V_Pelvis_Origin			V_R.Hip_JC			V_L.Hip_JC			V_R.Knee_JC			V_L.Knee_JC			V_R.Ankle_JC			V_L.Ankle_JC			V_Mid_Hip			V_Mid_Shoulder			V_R.Hand			V_L.Hand			V_R.Toe_Offset_Static			V_L.Toe_Offset_Static			V_R.Toe_Offset			V_L.Toe_Offset			
		X1	Y1	Z1	X2	Y2	Z2	X3	Y3	Z3	X4	Y4	Z4	X5	Y5	Z5	X6	Y6	Z6	X7	Y7	Z7	X8	Y8	Z8	X9	Y9	Z9	X10	Y10	Z10	X11	Y11	Z11	X12	Y12	Z12	X13	Y13	Z13	X14	Y14	Z14	X15	Y15	Z15	X16	Y16	Z16	X17	Y17	Z17	X18	Y18	Z18	X19	Y19	Z19	X20	Y20	Z20	X21	Y21	Z21	X22	Y22	Z22	X23	Y23	Z23	X24	Y24	Z24	X25	Y25	Z25	X26	Y26	Z26	X27	Y27	Z27	X28	Y28	Z28	X29	Y29	Z29	X30	Y30	Z30	X31	Y31	Z31	X32	Y32	Z32	X33	Y33	Z33	X34	Y34	Z34	X35	Y35	Z35	X36	Y36	Z36	X37	Y37	Z37	X38	Y38	Z38	X39	Y39	Z39	

531	4.417	-424.94049	124.31934	1715.66223	-549.78259	124.05418	1654.15771	-330.51059	117.23450	1627.70532	-404.60141	314.68405	1403.00354	-286.59830	34.54781	1267.02295	-322.51724	416.24332	1094.07520	-381.05707	433.90002	838.06097	-451.31897	-89.70502	1414.14294	-515.25256	-205.02197	1103.50110	-700.66791	-175.65692	928.31482	-473.63315	246.71227	937.00629	-489.35071	-39.92825	938.99915	-256.78070	96.20860	929.31549	-644.78156	235.87688	629.40350	-602.83026	281.40561	493.42715	-605.28607	200.07481	262.28036	-542.93909	262.48611	91.47655	-479.31799	194.54372	70.52181	-678.70166	248.69029	70.44371	-481.92447	14.73230	599.27148	-364.05853	-38.58596	452.79453	-350.51450	39.43710	314.43069	-241.45358	-23.95374	63.25898	-174.27553	32.73713	47.63818	-379.77756	-19.19226	38.21821	-718.88446	238.05582	82.65574	-688.27710	212.83521	77.64221	-596.97583	176.01308	89.65357	-525.10193	168.72055	75.11501	-509.59412	239.84621	68.58469	-582.89282	272.54785	58.59181	-645.38397	283.97366	56.57107	-425.31683	5.50533	33.00895	-390.62952	20.41149	40.95816	-295.66660	65.66676	42.26868	-211.69237	65.42228	43.60445	-201.99438	-6.56989	45.19606	-274.36795	-35.02425	33.03769	-336.04678	-50.45786	36.44229																																																	-480.99982	51.18306	-6.38642	
532	4.425	-437.25751	125.42235	1713.38062	-562.00183	125.03544	1651.58875	-342.70233	118.12270	1625.29504	-416.31711	315.06503	1400.51917	-298.04956	34.84460	1264.95605	-331.50000	416.42514	1092.55225	-386.02258	434.60141	835.82574	-464.16949	-89.00761	1411.78784	-532.30664	-203.48862	1102.00964	-721.77185	-171.80922	931.69977	-485.50388	247.20551	935.02435	-500.71768	-39.54819	937.03461	-268.20316	96.39075	927.38074	-657.31183	234.73024	628.16614	-617.45264	280.01657	492.55319	-631.21130	200.82333	261.06165	-580.74933	264.72803	87.18752	-516.51666	199.27719	62.53487	-715.22498	248.93544	74.74209	-489.58752	14.63657	596.93060	-369.07483	-38.66631	451.82108	-352.73108	39.39180	312.94083	-241.71681	-23.56924	63.68691	-174.28267	33.51469	48.81250	-379.90579	-19.23398	38.11384	-755.52454	238.35507	88.30459	-723.85516	214.21579	81.26710	-632.39374	178.36116	88.34328	-560.98383	172.39316	69.61395	-546.24884	243.91878	62.96997	-621.67255	275.79938	57.55706	-683.73169	285.81656	59.06919	-425.20102	5.11280	32.75508	-390.81775	20.24730	40.81199	-295.84531	65.80074	42.24753	-212.07858	65.72581	44.11318	-202.45552	-6.52795	45.76129	-274.34641	-34.71010	33.09005	-336.09647	-50.54849	36.30989																																																	-480.84982	51.05231	-6.27778	
533	4.433	-449.50586	126.15548	1710.70093	-574.27063	125.97600	1649.02881	-355.45120	118.54197	1622.32349	-427.73355	315.88168	1398.05286	-309.97849	35.39409	1262.77222	-340.82697	416.95184	1090.83032	-391.43103	435.35568	833.57355	-477.44376	-88.08607	1409.35742	-549.65210	-202.39261	1100.50586	-742.88599	-167.94728	935.08185	-497.55884	247.86440	932.61578	-511.71579	-39.37390	934.26001	-280.16980	96.86885	925.54266	-669.75092	233.50703	626.32294	-631.70831	278.71176	490.99408	-657.28638	201.67603	260.57339	-614.76141	269.26520	85.48197	-552.36285	203.79199	56.06750	-750.85748	250.43199	79.00614	-497.41193	14.10786	594.50317	-374.22543	-38.51907	450.56970	-356.75977	39.33737	312.29938	-247.92265	-20.15375	60.27230	-174.40587	33.99995	49.53761	-379.97888	-19.22875	38.00307	-791.68665	239.30794	93.89510	-759.73370	215.06102	85.88523	-666.57025	181.06612	87.33796	-596.21661	176.06413	65.06608	-583.04303	247.97546	58.87974	-659.38763	278.46170	56.95539	-721.25256	287.65057	62.12564	-425.54578	4.59376	32.53453	-390.97455	20.14286	40.76596	-295.97946	65.86568	42.18810	-212.37881	65.90332	44.66987	-202.71800	-6.43837	46.41676	-274.32230	-34.50267	33.12436	-336.08932	-50.54177	36.19610																																																	-480.14786	50.79402	-6.04279	-941.44122	349.71960	25.74676	
534	4.442	-461.92929	127.30054	1707.82141	-586.73126	127.17941	1646.42712	-367.52573	119.27242	1619.88147	-439.68585	316.65182	1395.77905	-321.38644	35.84535	1260.91626	-349.25735	417.11606	1089.20251	-396.82263	436.09192	831.46820	-490.19287	-87.07428	1406.64722	-566.61670	-201.13904	1099.34753	-763.65027	-164.37112	938.21240	-509.51471	248.26410	930.38031	-523.24030	-38.86904	931.89960	-291.86603	97.37936	923.53998	-681.73035	232.02492	623.80219	-645.92352	277.50854	489.52240	-682.31372	203.04456	260.31192	-649.29218	273.06479	83.72359				-786.64075	252.52078	83.35429	-505.35614	13.64594	592.19525	-379.59805	-38.41108	449.48758	-361.32043	40.23667	311.36591	-247.98972	-20.17062	61.19412	-175.02060	34.51063	50.66566	-380.08020	-19.27516	37.89997	-829.08331	238.34503	99.57375	-793.36060	217.05325	90.85329	-700.84247	183.72543	87.33633	-631.34167	179.80916	61.62415	-618.95856	253.30324	54.69225	-695.65308	281.54749	57.37462	-757.88269	290.35098	66.40623	-425.81525	4.04165	32.43799	-391.02701	20.06945	40.73391	-296.41391	65.99218	42.24471	-212.71890	66.20763	45.68852	-203.17334	-6.01953	47.40929	-274.24768	-34.36910	33.17776	-336.04254	-50.60492	36.08883																																																	-480.15295	50.71846	-5.88740	-607.43359	201.89551	42.89137	-425.00031	144.02487	115.74031	
535	4.450	-474.06750	128.10014	1705.08435	-598.85144	128.28430	1643.72412	-380.49564	120.55847	1617.30273	-451.61014	317.39871	1393.27600	-333.43475	36.01195	1258.86060	-358.36572	417.30167	1087.78882	-402.69272	436.80667	829.38031	-502.89703	-86.02702	1404.07849	-583.44000	-199.45790	1097.65088	-783.60858	-160.62769	941.52460	-520.72534	248.78198	927.52161	-535.55170	-37.74081	929.94946	-303.67661	97.79457	921.57471	-693.26929	230.62364	620.83148	-659.73248	276.50827	487.66510	-706.92822	203.93915	260.43069	-682.18384	276.55643	84.27042	-623.25854	211.72058	45.44846	-820.08185	254.49025	88.96223	-513.46344	12.97246	589.59290	-385.18362	-38.38457	448.42966	-364.34702	39.87670	310.06403	-248.20070	-20.01848	62.09966	-175.35603	35.02217	52.03195	-380.08368	-19.32303	37.72921	-861.31720	240.27289	107.09978	-826.61389	219.15630	96.31348	-733.89923	186.35219	88.22161	-666.12415	183.39731	58.56733	-654.85150	256.31183	51.95683	-731.55176	283.77676	58.66744	-792.63593	292.49390	71.03163	-426.07895	3.56503	32.47168	-390.93225	20.05495	40.57997	-296.83121	66.01110	42.55923	-213.25421	66.59922	46.53248	-203.81512	-4.97451	48.20642	-274.27390	-34.29430	33.34921	-336.04559	-50.62553	35.94287																																																	-479.74301	50.48361	-5.70178	
536	4.458	-486.49136	129.25729	1702.42383	-611.32520	129.66917	1640.84448	-392.43823	121.37625	1614.48035	-463.42987	318.39703	1390.94702	-345.74951	36.60460	1256.59875	-368.01001	418.02914	1086.08386	-409.36182	437.42563	827.06464	-516.06134	-84.89433	1401.39148	-600.15692	-197.92834	1096.32141	-803.36859	-156.79997	944.76300	-534.25610	249.74724	925.95831	-546.34290	-37.71493	927.72028	-315.93610	98.78674	919.42212	-704.13776	229.04926	616.88245	-672.99365	275.77332	485.72089	-731.01611	204.30147	260.88260	-714.91119	279.31601	83.31505	-657.22534	215.23654	42.36113	-852.82501	256.70569	95.66892	-521.67981	12.30861	587.42065	-390.98773	-38.47613	447.54352	-368.01559	39.89484	309.31738	-248.34843	-19.42449	63.42627	-175.80890	35.67992	53.90864	-379.10986	-18.78426	37.33312	-891.71021	241.88289	115.86642	-858.51514	220.64941	103.07084	-765.89728	188.42010	89.82053	-698.88409	186.60312	57.40501	-688.95599	259.77731	50.27131	-765.38641	286.42459	60.98208	-825.75562	294.77631	76.67602	-426.29691	2.98634	32.51145	-390.86194	19.99011	40.49702	-297.21664	66.23251	43.21605	-213.35303	67.26296	48.11328	-204.22513	-4.68167	49.79989	-274.48682	-34.17693	33.43109	-335.81772	-50.52202	35.73456																																																	-478.30786	49.83004	-5.30264	
537	4.467	-498.93610	130.56024	1699.83899	-623.66187	130.86597	1638.27844	-404.77692	122.28917	1611.62598	-475.33441	319.42728	1388.32288	-357.66608	37.23470	1254.29871	-377.62939	418.91577	1083.99902	-415.80435	438.08130	824.79156	-528.75781	-83.36526	1398.83618	-615.97699	-196.04416	1094.69604	-822.40900	-153.11493	947.55023	-546.90759	250.50926	923.71741	-557.72693	-37.35189	925.13135	-327.75336	99.97083	917.46600	-715.10382	227.33380	613.30481	-686.58313	275.05911	483.87628	-752.41547	205.49149	261.15295	-745.21539	281.94730	84.51389	-691.28143	218.72115	39.50777	-883.11713	258.08261	102.26329	-530.66711	11.37968	585.19006	-396.81039	-38.35215	446.51538	-372.49426	39.53265	308.47147	-247.83347	-19.13206	64.65102	-175.76213	36.18084	56.07707	-379.65408	-19.14877	37.54873	-921.53625	243.22624	124.30537	-887.58002	222.28368	109.64986	-796.75586	190.32713	92.30621	-728.23706	189.24971	57.10080	-720.50360	262.87823	49.88602	-797.47058	288.53024	64.46245	-857.22260	296.86865	82.40997	-426.00330	2.76926	31.91086	-391.13126	19.93810	40.41382	-297.47388	66.28543	43.80427	-214.09238	67.63509	50.23248	-206.49786	-1.98218	48.60690	-274.40900	-33.97713	33.66539	-336.08310	-50.36157	36.20203																																																	-476.32739	48.85748	-4.45134	
538	4.475	-511.34207	132.13556	1697.29102	-636.62372	132.08958	1635.83142	-417.33215	123.73679	1608.80969	-487.00864	320.55353	1385.98193	-369.82587	37.81074	1252.10608	-387.75015	419.46515	1082.31592	-423.40372	438.34262	822.70587	-541.94086	-81.71158	1396.10571	-632.08740	-194.39793	1093.14331	-841.14111	-149.40680	950.18011	-559.70831	251.21754	921.41571	-570.35529	-35.75345	923.47003	-340.15988	101.18581	915.38391	-725.58551	225.53575	609.20770	-699.81659	274.61038	481.88986	-774.54645	206.04858	262.25409	-776.33026	283.19351	86.05431	-722.71661	220.41205	38.15897	-911.66571	259.52817	108.91029	-540.09863	10.16355	583.27759	-403.16772	-38.33172	445.79080	-377.52872	39.55250	307.94388	-248.96844	-18.67472	66.13720	-176.99594	36.82833	58.25251	-379.86996	-19.02886	37.45222	-948.73346	243.29280	132.71915	-916.46765	223.02002	116.29665	-824.82001	192.32474	94.85091	-759.30341	191.14098	56.71819	-751.36011	265.47672	49.56074	-827.42242	290.47101	67.26626	-886.37207	298.28909	88.19078	-426.15021	2.41842	31.71842	-391.35019	19.87130	40.43356	-298.16336	66.40053	44.77231	-214.69920	67.99699	51.77563	-207.43112	-1.79608	50.63953	-274.74872	-33.82425	33.98727	-336.02670	-50.14136	35.94756																																																	-475.66034	48.68663	-4.14388	
539	4.483	-523.52472	133.28661	1694.85791	-648.94580	133.57927	1633.25061	-429.50372	124.97887	1606.69714	-499.16113	321.95242	1383.71960	-381.76892	38.65596	1249.90283	-397.75723	420.24670	1080.63660	-430.99805	438.88989	820.40784	-554.81042	-80.16615	1393.73779	-647.94836	-192.46181	1091.65100	-859.30383	-145.78876	953.10767	-572.93970	252.29321	919.00500	-581.73297	-35.87322	921.02301	-352.63742	102.66019	913.33112	-735.83923	223.76062	605.30359	-713.75647	274.74023	480.21338	-795.18060	207.02934	262.85071	-804.44153	284.57248	87.64024	-751.45856	223.12560	37.30695	-938.59729	260.69897	115.03339	-547.17279	10.22560	580.51044	-409.72357	-38.30628	445.15607	-382.25943	39.67023	307.22803	-248.38353	-19.12107	68.13091	-177.01196	37.35141	61.33789	-380.50565	-19.43079	37.56612	-974.93909	244.25009	139.73106	-942.76666	224.28891	122.54015	-852.57013	193.50905	97.83169	-789.77759	193.16946	56.76883	-780.37854	266.54089	49.92625	-856.06732	292.33575	70.85528	-914.06116	300.18356	94.74494	-426.45010	2.13133	31.58414	-391.57556	19.74550	40.48240	-298.94330	66.45918	45.94292	-215.43489	68.34331	54.39746	-208.29414	-1.13686	52.73005	-275.06305	-33.86969	34.40596	-336.03903	-50.00343	36.01135																																																	-473.33990	47.29003	-2.84989	
